<svg xmlns="http://www.w3.org/2000/svg" width="137.459" height="224.006" viewBox="0 0 137.459 224.006">
  <g id="Group_28" data-name="Group 28" transform="translate(-219.778 202.006)">
    <g id="Group_26" data-name="Group 26" transform="translate(-219.398 -297.063)">
      <g id="Group_24" data-name="Group 24" transform="translate(-1000 86.043)">
        <g id="Group_22" data-name="Group 22">
          <path id="Path_25" data-name="Path 25" d="M832.278-33.937l11.915,14.557v3.39H832.824Z" transform="translate(716.654 249.01)" fill="#6a7bff"/>
          <path id="Path_26" data-name="Path 26" d="M757.258-45.982l-3.229,1.8L742.685-22.1,730.07-16.93h54.958L759.175-36.948l-3.461-4.7Z" transform="translate(721.762 249.949)" fill="#6a7bff"/>
          <path id="Path_27" data-name="Path 27" d="M735.1-133.136l-10.591-27.17-5.629-20.933s1.574-16.273,5.629-25.772,3.26-5.424,10.591-12.224,8.137-8.4,18.732-14.974,10.6-9.074,23.647-11.326,16.951-.217,28.523,2.321,17.767,7.831,17.767,7.831l1.139,1.068c3.181,2.982,7.127,4.035,11.585,10.861s6.247,16.442,6.247,16.442l-1.009,15.4,4.853,12.734,1.676,15.2v26.688l-8.891,2.34s2.083-14.24,0-25.663a40.1,40.1,0,0,0-8.71-18.569s-7.4-9.551-18.517-12.734-22.8-1.518-34.662,1.546a57.548,57.548,0,0,0-19.275,8.824l-6.5,5.409s-5.283,4.863-8.494,15.525-4.353,27.122-4.353,27.122l-2.054,7.568Z" transform="translate(720.73 255.966)" fill="#5567f2"/>
          <path id="Path_28" data-name="Path 28" d="M838.614-70.514l-3.54,13.3-3.19,25.876v13.392H785.533L758.744-39.641l1.335-20.316L775.6-48.642s.175.174,8,2.676,10.784,4.121,22.395,0,16.23-8.408,24.3-14.933S838.614-70.514,838.614-70.514Z" transform="translate(718.275 250.966)" fill="#142188"/>
          <path id="Path_29" data-name="Path 29" d="M744.988-166.707c-4.008,11.131-4.859,33.332-4.859,33.332s-5.786,4.021-7.715,7.823a8.51,8.51,0,0,0,0,7.388l1.654,6.97.587,4.045,2.737,5.031,2.737,5.041L744-94.27l2.484,19.09s3.124,8.772,13.326,16.584,13.182,9.46,24.547,12.613,9.093,4.1,20.911,0,17.158-8.592,26.359-16.4,7.387-5.6,10.446-14.846,1.791-22.146,1.791-22.146l3.4,3.7s3.291-.2,5.881-4.857,2.167-4.562,3.429-11.013.624-9.153.624-13.894a45.515,45.515,0,0,0-.624-7.927s-2.475-3.839-4.8-3.515-4.507,3.515-4.507,3.515l-5.192,1.741s2.532-12.316.552-23.883-1.551-14.259-8.47-22.383-8.451-12.568-23.127-14.543-31.04,1.456-31.04,1.456l-20.177,7.014S749-177.838,744.988-166.707Z" transform="translate(719.275 251.966)" fill="#424fb7"/>
        </g>
        <path id="Path_30" data-name="Path 30" d="M1452.111,233.019l12.48-4.891,11.422-22.653h1.438l.834-12.824-12.344-15.226-2.815-20.474-4.008-2.637-5.189-9.207-2.954-14.654v-5.027l4.544-3.509-16.342-47.83,7.333-29.3,18.067-15.779,24.437-16.343,19.453-3.656,28.705,6.565,14.157,10.451,7.949,10.8,3.986,11.484-1.393,15.547,5.154,12.858,1.858,19.709v18.848h4.072l3.19,3.062v21.193l-3.19,10.485-4.072,5.961-2.759.975-2.86-4.1v17.861l-4.432,11.51-3.342,3.75-2.567,11.506-2.84,19.007,9.761,11.646.952,1.319v3.572Z" fill="none"/>
      </g>
      <path id="Path_32" data-name="Path 32" d="M1769.383,154.508l12.112-5.049,11.6-22.469,1.675-.472.49-12.169s-3.16-3.1-6.68-6.881a36.74,36.74,0,0,1-5.763-8.834l-2.545-19.23-3.823-2.868-5.179-10.162-3.567-14.8,1.288-3.791,3.5-5.357L1762.521,17.6l-5.873-21.251,3.468-21.045,4.962-10.848,6.462-5.115,9.352-8.4,35.183,99.015L1831.2,154.508Z" transform="translate(-1317 164.527)" fill="rgba(8,8,8,0.2)"/>
    </g>
  </g>
</svg>
